<svg width="20" height="20" viewBox="0 0 20 20" fill="none" xmlns="http://www.w3.org/2000/svg">
<path d="M6.66666 9.99996C6.66666 10.884 7.01785 11.7319 7.64297 12.357C8.26809 12.9821 9.11593 13.3333 9.99999 13.3333C10.884 13.3333 11.7319 12.9821 12.357 12.357C12.9821 11.7319 13.3333 10.884 13.3333 9.99996C13.3333 9.1159 12.9821 8.26806 12.357 7.64294C11.7319 7.01782 10.884 6.66663 9.99999 6.66663C9.11593 6.66663 8.26809 7.01782 7.64297 7.64294C7.01785 8.26806 6.66666 9.1159 6.66666 9.99996Z" stroke="#73EF46" stroke-width="2" stroke-linecap="round" stroke-linejoin="round"/>
<path d="M13.3333 9.99999V11.25C13.3333 11.8025 13.5528 12.3324 13.9435 12.7231C14.3342 13.1138 14.8641 13.3333 15.4167 13.3333C15.9692 13.3333 16.4991 13.1138 16.8898 12.7231C17.2805 12.3324 17.5 11.8025 17.5 11.25V9.99999C17.5021 8.38841 16.985 6.81903 16.0253 5.52432C15.0657 4.22961 13.7145 3.27845 12.172 2.81174C10.6295 2.34503 8.97764 2.3876 7.4612 2.93313C5.94476 3.47866 4.64437 4.49815 3.75267 5.84056C2.86097 7.18297 2.42539 8.7769 2.51046 10.3862C2.59553 11.9956 3.19671 13.5347 4.22496 14.7756C5.25321 16.0166 6.65383 16.8933 8.21933 17.2759C9.78483 17.6585 11.4319 17.5267 12.9167 16.9" stroke="#73EF46" stroke-width="2" stroke-linecap="round" stroke-linejoin="round"/>
</svg>
