<svg width="20" height="20" viewBox="0 0 20 20" fill="none" xmlns="http://www.w3.org/2000/svg">
<path d="M10 1.66663C5.40001 1.66663 1.66667 5.39996 1.66667 9.99996C1.66667 14.6 5.40001 18.3333 10 18.3333C14.6 18.3333 18.3333 14.6 18.3333 9.99996C18.3333 5.39996 14.6 1.66663 10 1.66663ZM13.8667 7.33329C13.7417 8.64996 13.2 11.85 12.925 13.325C12.8083 13.95 12.575 14.1583 12.3583 14.1833C11.875 14.225 11.5083 13.8666 11.0417 13.5583C10.3083 13.075 9.89167 12.775 9.18334 12.3083C8.35834 11.7666 8.89167 11.4666 9.36667 10.9833C9.49167 10.8583 11.625 8.91663 11.6667 8.74163C11.6725 8.71512 11.6717 8.6876 11.6644 8.66146C11.6572 8.63532 11.6436 8.61135 11.625 8.59163C11.575 8.54996 11.5083 8.56663 11.45 8.57496C11.375 8.59163 10.2083 9.36663 7.93334 10.9C7.60001 11.125 7.3 11.2416 7.03334 11.2333C6.73334 11.225 6.16667 11.0666 5.74167 10.925C5.21667 10.7583 4.80834 10.6666 4.84167 10.375C4.85834 10.225 5.06667 10.075 5.45834 9.91663C7.89167 8.85829 9.50834 8.15829 10.3167 7.82496C12.6333 6.85829 13.1083 6.69163 13.425 6.69163C13.4917 6.69163 13.65 6.70829 13.75 6.79163C13.8333 6.85829 13.8583 6.94996 13.8667 7.01663C13.8583 7.06663 13.875 7.21663 13.8667 7.33329Z" fill="#73EF46"/>
</svg>
