<svg width="20" height="20" viewBox="0 0 20 20" fill="none" xmlns="http://www.w3.org/2000/svg">
<path d="M12.5608 1.66663H7.44749C2.77749 1.66663 1.66666 2.77746 1.66666 7.43913V12.5525C1.66666 17.2216 2.76916 18.3333 7.43916 18.3333H12.5525C17.2217 18.3333 18.3333 17.2308 18.3333 12.5608V7.44746C18.3333 2.77746 17.2308 1.66663 12.5608 1.66663ZM15.1217 13.5583H13.9058C13.4458 13.5583 13.3075 13.1858 12.4825 12.3608C11.7625 11.6666 11.4583 11.58 11.2758 11.58C11.0242 11.58 10.955 11.6491 10.955 11.9966V13.09C10.955 13.3858 10.8592 13.5591 10.0867 13.5591C9.33694 13.5087 8.60993 13.281 7.96549 12.8946C7.32105 12.5082 6.77763 11.9742 6.37999 11.3366C5.43596 10.1616 4.77911 8.78257 4.46166 7.30913C4.46166 7.12663 4.53082 6.96163 4.87832 6.96163H6.09332C6.40582 6.96163 6.51832 7.10079 6.64082 7.42163C7.23082 9.15829 8.23749 10.6683 8.64582 10.6683C8.80249 10.6683 8.87082 10.5991 8.87082 10.2083V8.41996C8.81916 7.60413 8.38582 7.53496 8.38582 7.23996C8.39139 7.16215 8.42705 7.08957 8.48523 7.03761C8.54341 6.98565 8.61955 6.95839 8.69749 6.96163H10.6075C10.8683 6.96163 10.955 7.09163 10.955 7.40413V9.81746C10.955 10.0783 11.0675 10.165 11.1458 10.165C11.3025 10.165 11.4233 10.0783 11.71 9.79163C12.3257 9.04075 12.8288 8.20419 13.2033 7.30829C13.2416 7.20068 13.3141 7.10855 13.4096 7.04595C13.5051 6.98336 13.6185 6.95374 13.7325 6.96163H14.9483C15.3125 6.96163 15.39 7.14413 15.3125 7.40413C14.8704 8.39448 14.3234 9.33458 13.6808 10.2083C13.55 10.4083 13.4975 10.5125 13.6808 10.7466C13.8017 10.9291 14.2275 11.285 14.5142 11.6233C14.9307 12.0388 15.2767 12.5196 15.5383 13.0466C15.6425 13.385 15.4683 13.5583 15.1217 13.5583Z" fill="#73EF46"/>
</svg>
