<svg width="20" height="20" viewBox="0 0 20 20" fill="none" xmlns="http://www.w3.org/2000/svg">
<path d="M8.26666 12.5714L12.7647 10L8.26666 7.42857V12.5714ZM18.2853 5.86C18.398 6.26286 18.476 6.80286 18.528 7.48857C18.5887 8.17429 18.6147 8.76571 18.6147 9.28L18.6667 10C18.6667 11.8771 18.528 13.2571 18.2853 14.14C18.0687 14.9114 17.566 15.4086 16.786 15.6229C16.3787 15.7343 15.6333 15.8114 14.4893 15.8629C13.3627 15.9229 12.3313 15.9486 11.378 15.9486L9.99999 16C6.36866 16 4.10666 15.8629 3.21399 15.6229C2.43399 15.4086 1.93133 14.9114 1.71466 14.14C1.60199 13.7371 1.52399 13.1971 1.47199 12.5114C1.41133 11.8257 1.38533 11.2343 1.38533 10.72L1.33333 10C1.33333 8.12286 1.47199 6.74286 1.71466 5.86C1.93133 5.08857 2.43399 4.59143 3.21399 4.37714C3.62133 4.26571 4.36666 4.18857 5.51066 4.13714C6.63733 4.07714 7.66866 4.05143 8.62199 4.05143L9.99999 4C13.6313 4 15.8933 4.13714 16.786 4.37714C17.566 4.59143 18.0687 5.08857 18.2853 5.86Z" fill="#73EF46"/>
</svg>
