<svg width="24" height="24" viewBox="0 0 24 24" fill="none" xmlns="http://www.w3.org/2000/svg">
<path fill-rule="evenodd" clip-rule="evenodd" d="M14 7H10H8H6.33112C5.89861 6.99997 5.47109 7.09345 5.07809 7.27405C4.68505 7.45467 4.33572 7.71814 4.05404 8.0464C3.77236 8.37467 3.565 8.75997 3.44618 9.17588C3.32735 9.59179 3.2999 10.0286 3.36565 10.4562L4.62065 18.6082C4.76591 19.5525 5.24437 20.4136 5.96946 21.0357C6.6946 21.6579 7.61854 22 8.574 22H15.426C16.3816 22.0002 17.3057 21.6583 18.031 21.0362C18.7564 20.414 19.2351 19.5525 19.3804 18.608L20.6354 10.456C20.7011 10.0285 20.6736 9.59179 20.5548 9.17588C20.436 8.75997 20.2286 8.37467 19.947 8.0464C19.6653 7.71814 19.316 7.45467 18.9229 7.27405C18.5299 7.09345 18.1024 6.99997 17.6699 7H16H14ZM5.9132 9.09135C6.04422 9.03115 6.18682 8.99998 6.331 9H8H10H14H16H17.6701C17.8143 8.99998 17.9568 9.03115 18.0878 9.09135C18.2188 9.15156 18.3353 9.23938 18.4291 9.3488C18.523 9.45822 18.5922 9.58665 18.6318 9.72529C18.6714 9.86388 18.6805 10.0095 18.6586 10.152L17.4036 18.304C17.331 18.7763 17.0917 19.207 16.7289 19.5181C16.3662 19.8292 15.9038 20.0001 15.426 20H8.574C8.09628 20 7.63436 19.8289 7.2718 19.5179C6.90924 19.2068 6.66997 18.776 6.59736 18.3038L5.34236 10.1519C5.32047 10.0094 5.32964 9.86389 5.36924 9.72529C5.40884 9.58666 5.47796 9.45822 5.57186 9.3488C5.66575 9.23938 5.78219 9.15156 5.9132 9.09135Z" fill="#A7A7A7"/>
<path d="M10.5858 4.58579C10.9609 4.21071 11.4696 4 12 4C12.5304 4 13.0391 4.21071 13.4142 4.58579C13.7893 4.96086 14 5.46957 14 6V7H16V6C16 4.93913 15.5786 3.92172 14.8284 3.17157C14.0783 2.42143 13.0609 2 12 2C10.9391 2 9.92172 2.42143 9.17157 3.17157C8.42143 3.92172 8 4.93913 8 6V7H10V6C10 5.46957 10.2107 4.96086 10.5858 4.58579Z" fill="#A7A7A7"/>
<path d="M10 11V9H8V11C8 11.5523 8.44772 12 9 12C9.55229 12 10 11.5523 10 11Z" fill="#A7A7A7"/>
<path d="M16 11V9H14V11C14 11.5523 14.4477 12 15 12C15.5523 12 16 11.5523 16 11Z" fill="#A7A7A7"/>
<path d="M12 4C11.4696 4 10.9609 4.21071 10.5858 4.58579C10.2107 4.96086 10 5.46957 10 6V7H14V6C14 5.46957 13.7893 4.96086 13.4142 4.58579C13.0391 4.21071 12.5304 4 12 4Z" fill="#A7A7A7"/>
</svg>
