<svg width="24" height="24" viewBox="0 0 24 24" fill="none" xmlns="http://www.w3.org/2000/svg">
<path fill-rule="evenodd" clip-rule="evenodd" d="M10.6377 1.5H14.3617C16.7828 1.5 18.8561 3.23468 19.2833 5.61782L20.8508 14.3627C20.9482 14.9061 20.8938 15.4657 20.6936 15.9801L19.5373 18.9508C18.9391 20.4878 17.459 21.5 15.8097 21.5H9.18969C7.54045 21.5 6.06027 20.4878 5.46208 18.9508L4.30585 15.9801C4.10564 15.4657 4.05123 14.9061 4.14863 14.3627L5.71614 5.61782C6.14331 3.23467 8.21657 1.5 10.6377 1.5ZM10.6214 3.5H14.3797C15.8371 3.5 17.0836 4.54739 17.3348 5.98295L18.5897 13.1553C18.8039 14.3791 17.8621 15.5 16.6197 15.5H8.38236C7.14004 15.5 6.19828 14.3793 6.41224 13.1556L7.66621 5.98332C7.91723 4.54758 9.16387 3.5 10.6214 3.5Z" fill="#A7A7A7"/>
</svg>
