<svg width="20" height="18" viewBox="0 0 20 18" fill="none" xmlns="http://www.w3.org/2000/svg">
<path d="M7.83837 15.7231C9.02105 16.9676 11.0049 16.9676 12.1876 15.7231L14.0143 13.801C14.0143 13.801 12.1876 11.0117 10.0117 11.0117C7.83581 11.0117 6.01172 13.801 6.01172 13.801L7.83837 15.7231Z" fill="#A7A7A7"/>
<path fill-rule="evenodd" clip-rule="evenodd" d="M6.41775 2.02361C5.87751 1.96238 5.3306 2.02047 4.81042 2.19532C4.29006 2.37023 3.80511 2.65914 3.38755 3.04753C2.96983 3.43607 2.62868 3.91579 2.3888 4.45854C2.14888 5.00138 2.01639 5.5935 2.00143 6.19718C1.98646 6.80086 2.08941 7.40006 2.30243 7.95642C2.51542 8.51271 2.83293 9.0119 3.23178 9.42425L3.2379 9.43058L5.9393 12.2732C6.10422 12.0866 6.29352 11.8859 6.50403 11.6842C7.27601 10.9448 8.52018 10.0117 10.0117 10.0117C11.5031 10.0117 12.7478 10.9446 13.5204 11.6839C13.7313 11.8858 13.921 12.0868 14.0863 12.2736L16.7881 9.43061C16.8084 9.40925 16.8295 9.38894 16.8513 9.36969C17.2189 8.96948 17.5123 8.49332 17.7121 7.96648C17.9227 7.41104 18.0238 6.81343 18.0077 6.21167C17.9916 5.60992 17.8587 5.0199 17.6191 4.47898C17.3795 3.93815 17.0394 3.46002 16.6231 3.07248C16.2071 2.6851 15.7239 2.39654 15.2054 2.2212C14.6871 2.04594 14.1421 1.98666 13.6034 2.04598C13.0646 2.1053 12.5402 2.28238 12.0631 2.56904C11.5858 2.85583 11.1648 3.24694 10.8293 3.72108C10.6412 3.98674 10.3357 4.14429 10.0103 4.1434C9.68481 4.14251 9.38014 3.9833 9.19359 3.71662C8.8594 3.23889 8.43883 2.84425 7.96108 2.55433C7.48354 2.26454 6.95806 2.08485 6.41775 2.02361ZM18.1701 10.8797L12.9125 16.412C11.3356 18.0713 8.6904 18.0713 7.11349 16.412L1.79101 10.8114C1.202 10.2015 0.741302 9.47245 0.434657 8.67156C0.127487 7.86929 -0.0193438 7.01015 0.00204097 6.14761C0.0234259 5.28506 0.212642 4.43484 0.559507 3.65003C0.906412 2.86514 1.40443 2.16069 2.02541 1.58309C2.64656 1.00533 3.37735 0.567061 4.17319 0.29955C4.96923 0.0319745 5.81049 -0.0580194 6.64298 0.0363326C7.47539 0.130676 8.27745 0.406861 8.99867 0.844531C9.36497 1.06682 9.70609 1.32812 10.0172 1.62313C10.328 1.33179 10.6682 1.07392 11.0331 0.854677C11.7539 0.4216 12.5544 0.149387 13.3845 0.0579907C14.2147 -0.0334145 15.053 0.0584082 15.8461 0.326598C16.639 0.594722 17.367 1.03242 17.986 1.60867C18.6047 2.18476 19.1013 2.88687 19.4477 3.66902C19.7941 4.45109 19.9839 5.29833 20.0069 6.15814C20.03 7.01795 19.8858 7.87475 19.5822 8.67556C19.2785 9.47644 18.821 10.2063 18.235 10.8177C18.2142 10.8395 18.1925 10.8602 18.1701 10.8797ZM12.7021 13.7302C12.5443 13.5442 12.3538 13.3358 12.1376 13.1288C11.4528 12.4735 10.6963 12.0117 10.0117 12.0117C9.32736 12.0117 8.57152 12.4733 7.88748 13.1285C7.67148 13.3354 7.48114 13.5439 7.32355 13.7298L8.56324 15.0343C9.3517 15.8639 10.6743 15.8639 11.4627 15.0343L12.7021 13.7302Z" fill="#A7A7A7"/>
</svg>
