<svg width="24" height="24" viewBox="0 0 24 24" fill="none" xmlns="http://www.w3.org/2000/svg">
<path d="M9.83837 18.7231C11.021 19.9676 13.0049 19.9676 14.1876 18.7231L16.0143 16.801C16.0143 16.801 14.1876 14.0117 12.0117 14.0117C9.83581 14.0117 8.01172 16.801 8.01172 16.801L9.83837 18.7231Z" fill="#A7A7A7"/>
<path fill-rule="evenodd" clip-rule="evenodd" d="M8.41775 5.02361C7.87751 4.96238 7.3306 5.02047 6.81042 5.19532C6.29006 5.37023 5.80511 5.65914 5.38755 6.04753C4.96983 6.43607 4.62868 6.91579 4.3888 7.45854C4.14888 8.00138 4.01639 8.5935 4.00143 9.19718C3.98646 9.80086 4.08941 10.4001 4.30243 10.9564C4.51542 11.5127 4.83293 12.0119 5.23178 12.4243L5.2379 12.4306L7.9393 15.2732C8.10422 15.0866 8.29352 14.8859 8.50403 14.6842C9.27601 13.9448 10.5202 13.0117 12.0117 13.0117C13.5031 13.0117 14.7478 13.9446 15.5204 14.6839C15.7313 14.8858 15.921 15.0868 16.0863 15.2736L18.7881 12.4306C18.8084 12.4093 18.8295 12.3889 18.8513 12.3697C19.2189 11.9695 19.5123 11.4933 19.7121 10.9665C19.9227 10.411 20.0238 9.81343 20.0077 9.21167C19.9916 8.60992 19.8587 8.0199 19.6191 7.47898C19.3795 6.93815 19.0394 6.46002 18.6231 6.07248C18.2071 5.6851 17.7239 5.39654 17.2054 5.2212C16.6871 5.04594 16.1421 4.98666 15.6034 5.04598C15.0646 5.1053 14.5402 5.28238 14.0631 5.56904C13.5858 5.85583 13.1648 6.24694 12.8293 6.72108C12.6412 6.98674 12.3357 7.14429 12.0103 7.1434C11.6848 7.14251 11.3801 6.9833 11.1936 6.71662C10.8594 6.23889 10.4388 5.84425 9.96108 5.55433C9.48354 5.26454 8.95806 5.08485 8.41775 5.02361ZM20.1701 13.8797L14.9125 19.412C13.3356 21.0713 10.6904 21.0713 9.11349 19.412L3.79101 13.8114C3.202 13.2015 2.7413 12.4724 2.43466 11.6716C2.12749 10.8693 1.98066 10.0102 2.00204 9.14761C2.02343 8.28506 2.21264 7.43484 2.55951 6.65003C2.90641 5.86514 3.40443 5.16069 4.02541 4.58309C4.64656 4.00533 5.37735 3.56706 6.17319 3.29955C6.96923 3.03197 7.81049 2.94198 8.64298 3.03633C9.47539 3.13068 10.2774 3.40686 10.9987 3.84453C11.365 4.06682 11.7061 4.32812 12.0172 4.62313C12.328 4.33179 12.6682 4.07392 13.0331 3.85468C13.7539 3.4216 14.5544 3.14939 15.3845 3.05799C16.2147 2.96659 17.053 3.05841 17.8461 3.3266C18.639 3.59472 19.367 4.03242 19.986 4.60867C20.6047 5.18476 21.1013 5.88687 21.4477 6.66902C21.7941 7.45109 21.9839 8.29833 22.0069 9.15814C22.03 10.0179 21.8858 10.8748 21.5822 11.6756C21.2785 12.4764 20.821 13.2063 20.235 13.8177C20.2142 13.8395 20.1925 13.8602 20.1701 13.8797ZM14.7021 16.7302C14.5443 16.5442 14.3538 16.3358 14.1376 16.1288C13.4528 15.4735 12.6963 15.0117 12.0117 15.0117C11.3274 15.0117 10.5715 15.4733 9.88748 16.1285C9.67148 16.3354 9.48114 16.5439 9.32355 16.7298L10.5632 18.0343C11.3517 18.8639 12.6743 18.8639 13.4627 18.0343L14.7021 16.7302Z" fill="#A7A7A7"/>
</svg>
