<svg width="24" height="24" viewBox="0 0 24 24" fill="none" xmlns="http://www.w3.org/2000/svg">
<path fill-rule="evenodd" clip-rule="evenodd" d="M20.9419 8.8904L21.0959 9.0051C21.3977 9.2277 21.4873 9.3468 21.5 9.5176C21.5 9.5739 21.4937 9.63 21.4852 9.6435L21.4198 9.7649L21.3755 9.8439C21.366 9.861 21.3576 9.8733 21.3534 9.8773L21.2879 9.956L21.2497 10.0013C21.2142 10.0436 21.1939 10.0678 21.0717 10.2033C20.9957 10.291 20.906 10.3876 20.8754 10.4169L20.8522 10.4413C20.8293 10.4652 20.8073 10.4882 20.7995 10.5C20.7841 10.5131 20.7457 10.554 20.7106 10.5913L20.7077 10.5944L20.5747 10.7347L20.3574 10.9676L20.3141 11.0142L20.1875 11.1496L20.0915 11.2553L20.0219 11.3385C19.9416 11.437 19.861 11.5338 19.78 11.6289C19.9238 12.2291 20 12.8557 20 13.5C20 17.9183 16.4183 21.5 12 21.5C7.58172 21.5 4 17.9183 4 13.5C4 12.8532 4.07676 12.2243 4.22166 11.622C4.12238 11.5044 4.02395 11.3844 3.9264 11.262L3.72383 11.0418C3.71012 11.0283 3.66581 10.9811 3.62783 10.9362L3.58562 10.8902L3.47379 10.772L3.31026 10.5989L3.22375 10.5073L3.11403 10.3943L2.98215 10.255L2.89036 10.1561C2.84605 10.1133 2.62555 9.8369 2.59812 9.7873L2.56963 9.7417L2.55381 9.7154C2.52005 9.657 2.5 9.5784 2.5 9.5064C2.5 9.3401 2.66564 9.1556 3.056 8.8837L3.13407 8.8274L3.20792 8.7758C3.21847 8.7713 3.27967 8.7308 3.3398 8.6882L3.46219 8.5982C3.4643 8.5937 3.50966 8.5644 3.55819 8.5353C3.60778 8.506 3.6637 8.4678 3.68163 8.4543C3.69645 8.4405 3.73646 8.4146 3.77171 8.3917L3.78608 8.3824C3.89791 8.315 4.06988 8.1958 4.18171 8.1104L4.38217 7.9597L4.4307 7.9229C4.47712 7.8854 4.52671 7.8411 4.55414 7.8114L4.69973 7.6607C4.76831 7.5934 4.79258 7.5618 4.87065 7.42922C4.88647 7.40682 4.91601 7.3573 4.93606 7.32357C4.97826 7.2607 4.99831 7.17746 5.04789 6.89426C5.06266 6.80939 5.06266 6.53456 5.05317 6.31802C5.04789 6.18445 5.0384 6.07314 5.02785 6.04224C5.01835 6.01755 5.00042 5.9366 4.99198 5.86469C4.98248 5.79277 4.96982 5.71857 4.96033 5.70049C4.95611 5.69064 4.95083 5.66932 4.94555 5.64396L4.93395 5.5769C4.92656 5.52968 4.91601 5.47801 4.90863 5.46451C4.90019 5.45102 4.88647 5.38356 4.87803 5.31394C4.86854 5.24648 4.8506 5.16553 4.84216 5.13625C4.83584 5.11646 4.82743 5.06993 4.81795 5.01758L4.80207 4.94076C4.79047 4.8621 4.76409 4.71598 4.74615 4.61695C4.7376 4.57087 4.72809 4.51252 4.71876 4.45529C4.70853 4.39254 4.69852 4.33116 4.69024 4.28882C4.67913 4.20914 4.66029 4.10892 4.65129 4.06109L4.65015 4.05501C4.62377 3.92683 4.60795 3.35585 4.63221 3.28165C4.65015 3.21648 4.74615 3.11529 4.83267 3.06146C4.89597 3.02098 5.2167 3.01424 5.41399 3.04338C5.67985 3.08615 5.99636 3.14686 6.26856 3.20973L6.48801 3.25696L6.52057 3.26572C6.57315 3.27986 6.6162 3.29143 6.6241 3.29514C6.63254 3.29973 6.69057 3.31092 6.75598 3.32212C6.81823 3.33346 6.87626 3.34695 6.8847 3.3514C6.89419 3.35815 6.95011 3.36934 7.00813 3.38068C7.06616 3.38958 7.12208 3.40307 7.13052 3.41211C7.14001 3.41886 7.1801 3.43006 7.21809 3.43451C7.25818 3.44126 7.30038 3.4503 7.3162 3.45934C7.33203 3.46824 7.39427 3.48403 7.45441 3.49752C7.50134 3.50568 7.57464 3.5211 7.64036 3.53491L7.70867 3.54919C7.88697 3.58953 8.00725 3.61328 8.11802 3.62907C8.21087 3.64229 8.29632 3.64998 8.40288 3.65713C8.65609 3.67062 8.71623 3.66833 8.97893 3.6234C9.05489 3.60991 9.1203 3.58292 9.19837 3.53799C9.43892 3.39862 9.49062 3.3626 9.49906 3.35585C9.50644 3.3514 9.5824 3.27719 9.66892 3.18734C9.75648 3.09964 9.87676 2.96917 9.93267 2.89726L10.0529 2.74898L10.0709 2.72618L10.0888 2.69717C10.1004 2.67694 10.1131 2.6567 10.1205 2.65225C10.1342 2.6455 10.2365 2.49493 10.341 2.33303L10.3906 2.25207C10.4001 2.23413 10.4106 2.21834 10.419 2.20971C10.4233 2.20526 10.4275 2.20269 10.4306 2.20269C10.4349 2.20269 10.4423 2.19811 10.4423 2.18691L10.4507 2.16748L10.4728 2.13078C10.5203 2.07007 10.6269 1.91262 10.6364 1.89697C10.6469 1.87443 10.9423 1.46752 11.051 1.32598L11.1628 1.17757C11.167 1.17209 11.1735 1.16408 11.1813 1.15438C11.199 1.13236 11.2239 1.1016 11.2451 1.07193L11.3369 0.959538L11.3485 0.946859C11.3621 0.930659 11.3782 0.911528 11.3907 0.901118L11.473 0.808968C11.587 0.676348 11.7864 0.518889 11.8644 0.503239C11.8866 0.500949 11.9625 0.498659 12.0364 0.500949C12.1609 0.503239 12.1767 0.507698 12.2548 0.557078C12.3265 0.604298 12.4732 0.734768 12.5607 0.833658L12.7285 1.03375L12.8488 1.18432C12.9891 1.36187 13.0366 1.42488 13.0366 1.44053C13.0366 1.44512 13.0408 1.45402 13.0471 1.45632C13.0534 1.45821 13.1167 1.54172 13.1959 1.65141C13.2993 1.79402 13.4322 1.98102 13.5071 2.09031L13.6506 2.29714C13.6886 2.35097 13.7192 2.40494 13.7192 2.41168C13.7192 2.41627 13.7234 2.42747 13.7308 2.42976C13.7392 2.43422 13.7645 2.46795 13.7909 2.50842L13.7972 2.51895L13.803 2.52806C13.8246 2.56225 13.842 2.58967 13.8468 2.59153L13.869 2.62108L13.9154 2.68368C13.9328 2.70406 13.9537 2.731 13.9746 2.75802L14.003 2.79445L14.0367 2.83884L14.1211 2.95123C14.1433 2.98496 14.4007 3.24792 14.4914 3.33346C14.5273 3.36719 14.751 3.50656 14.7668 3.50656C14.7668 3.50656 14.8111 3.5268 14.8512 3.55364C14.9272 3.60087 14.9789 3.61436 15.2247 3.65483C15.345 3.67507 15.7955 3.65942 15.9031 3.63244C15.9432 3.61895 16.0191 3.60545 16.0729 3.60087C16.1056 3.59682 16.1362 3.59115 16.1573 3.5863L16.1848 3.57847L16.2122 3.57051C16.2396 3.5639 16.2829 3.55513 16.3272 3.54919C16.3968 3.54029 16.457 3.5268 16.4633 3.51776C16.4675 3.5133 16.5255 3.49981 16.5931 3.48848C16.6448 3.47971 16.6901 3.47094 16.707 3.46433L16.7154 3.45934C16.7154 3.45259 16.7513 3.44126 16.7914 3.4368C16.8368 3.43006 16.8769 3.41886 16.8853 3.41427C16.8906 3.41036 16.9096 3.40429 16.9349 3.39822L16.9993 3.38513C17.0552 3.37393 17.1132 3.36044 17.1311 3.35369C17.147 3.34465 17.2092 3.32887 17.2672 3.31767C17.377 3.29514 17.5774 3.25021 17.7494 3.20973C17.8011 3.19624 17.9034 3.176 17.9773 3.16481C18.0469 3.15131 18.1197 3.13553 18.1376 3.12662C18.1735 3.11529 18.355 3.08385 18.6198 3.04338C18.835 3.01424 19.103 3.02543 19.1758 3.06591C19.2612 3.11529 19.333 3.1895 19.3636 3.266C19.3878 3.31767 19.3952 3.37609 19.3952 3.55823C19.3952 3.68182 19.3857 3.84143 19.3752 3.91118L19.3372 4.14945L19.3167 4.29477C19.2808 4.54905 19.2727 4.60675 19.2591 4.65297C19.2496 4.68441 19.2317 4.76981 19.2232 4.84631C19.2138 4.92268 19.2011 4.99243 19.1937 5.00592L19.1557 5.19252C19.1464 5.25041 19.1322 5.31987 19.1202 5.378C19.1132 5.41238 19.1069 5.4428 19.103 5.46451C19.0428 5.72882 19.0091 5.90449 18.989 6.08231C18.9764 6.19025 18.9679 6.29899 18.9616 6.42892C18.9532 6.62226 18.9511 6.79078 18.9532 6.80211C18.9574 6.8156 18.969 6.88967 18.9774 6.96172L18.9777 6.9633C18.9892 7.03694 19.0017 7.11692 19.0091 7.14157C19.0175 7.16626 19.0291 7.21119 19.0355 7.24046C19.0418 7.27419 19.0534 7.30563 19.065 7.31683C19.0755 7.32803 19.1051 7.37754 19.1315 7.42476L19.136 7.43166C19.1637 7.47375 19.1876 7.5102 19.1916 7.5102C19.1958 7.5102 19.2053 7.5281 19.2116 7.5462C19.219 7.5664 19.2496 7.6114 19.2855 7.6428C19.3235 7.6742 19.353 7.708 19.353 7.7125C19.353 7.7193 19.411 7.7777 19.487 7.8452C19.6737 8.0204 19.7951 8.1104 20.1675 8.3599L20.4977 8.5802L20.5294 8.6017L20.6212 8.6635L20.6897 8.7151C20.7035 8.7286 20.7214 8.7421 20.7277 8.7421C20.7372 8.7421 20.8353 8.8096 20.9419 8.8904ZM6.00079 13.4015C6.00027 13.4343 6 13.4671 6 13.5C6 16.8137 8.68629 19.5 12 19.5C15.3137 19.5 18 16.8137 18 13.5C18 13.468 17.9997 13.436 17.9992 13.4041C17.948 10.1346 15.2817 7.5 12 7.5C8.71918 7.5 6.05339 10.1332 6.00079 13.4015Z" fill="#A7A7A7"/>
</svg>
