<svg width="111" height="32" viewBox="0 0 111 32" fill="none" xmlns="http://www.w3.org/2000/svg">
<path d="M20.4086 15.2297H14.565C14.3879 14.0853 13.9452 13.2783 13.2368 12.8088C12.558 12.3393 11.5546 12.1045 10.2265 12.1045C9.10494 12.1045 8.23429 12.3099 7.6145 12.7208C6.99472 13.1022 6.68483 13.6451 6.68483 14.3494C6.68483 15.171 7.03899 15.7432 7.74732 16.066C8.45564 16.3888 9.72473 16.7409 11.5546 17.1224C11.8792 17.1811 12.1153 17.2251 12.2629 17.2545C13.3254 17.4599 14.1665 17.6506 14.7863 17.8267C15.4356 17.9734 16.2177 18.2375 17.1326 18.619C18.0476 18.9711 18.7559 19.3819 19.2576 19.8514C19.7593 20.2916 20.202 20.8932 20.5857 21.6561C20.9694 22.4191 21.1612 23.2994 21.1612 24.2971C21.1612 26.674 20.2316 28.552 18.3722 29.9312C16.5128 31.3104 13.9599 32 10.7134 32C7.6145 32 5.06158 31.3398 3.05466 30.0193C1.04773 28.6988 0.0295136 26.674 0 23.945H5.9765C6.18309 26.4686 7.80634 27.7304 10.8462 27.7304C12.1153 27.7304 13.1188 27.481 13.8566 26.9821C14.624 26.4539 15.0077 25.7643 15.0077 24.9133C15.0077 24.0624 14.6683 23.4608 13.9894 23.1087C13.3106 22.7565 12.0563 22.3751 10.2265 21.9642C10.0789 21.9349 9.96083 21.9055 9.87229 21.8762C9.6657 21.8175 9.20824 21.7148 8.49991 21.5681C7.79158 21.4214 7.28986 21.3187 6.99472 21.26C6.7291 21.1719 6.27164 21.0399 5.62234 20.8638C5.00255 20.6878 4.54509 20.5264 4.24996 20.3796C3.95482 20.2036 3.55639 19.9982 3.05466 19.7634C2.58244 19.4993 2.22828 19.2205 1.99217 18.9271C1.75606 18.6337 1.49044 18.2962 1.1953 17.9147C0.929678 17.5039 0.73784 17.0491 0.619785 16.5502C0.531245 16.0514 0.486974 15.5085 0.486974 14.9216C0.486974 12.6914 1.35762 10.9748 3.09893 9.77166C4.84023 8.56855 7.30461 7.96699 10.4921 7.96699C13.3549 7.96699 15.7012 8.55387 17.5311 9.72765C19.3609 10.9014 20.3201 12.7354 20.4086 15.2297Z" fill="#F8F8F8"/>
<path d="M42.8586 31.3398H36.4836V18.0908C36.4836 16.4768 36.218 15.2591 35.6868 14.4374C35.1555 13.5864 34.1225 13.1609 32.5878 13.1609C29.2823 13.1609 27.6296 15.1563 27.6296 19.1472V31.3398H21.3874V8.62723H27.3639V11.7964C29.2528 9.27281 31.7762 8.011 34.9342 8.011C37.3838 8.011 39.3169 8.71527 40.7336 10.1238C42.1502 11.5323 42.8586 13.5424 42.8586 16.1541V31.3398Z" fill="#F8F8F8"/>
<path d="M65.2936 31.3398H58.9187C58.7121 30.7529 58.5645 30.0193 58.476 29.1389C56.5576 31.0463 54.0932 32 51.0828 32C48.5447 32 46.5525 31.3984 45.1063 30.1953C43.6602 28.9629 42.9371 27.2756 42.9371 25.1334C42.9371 24.1651 43.0551 23.3141 43.2912 22.5805C43.5569 21.8469 43.97 21.2306 44.5308 20.7318C45.1211 20.2329 45.6671 19.8221 46.1688 19.4993C46.7001 19.1765 47.4231 18.9124 48.3381 18.707C49.253 18.5016 49.9908 18.3549 50.5516 18.2668C51.1123 18.1495 51.8944 18.0321 52.8979 17.9147C55.1114 17.6213 56.5871 17.3132 57.3249 16.9904C58.0923 16.6676 58.476 16.066 58.476 15.1857C58.476 13.1609 57.1036 12.1486 54.3588 12.1486C52.9127 12.1486 51.8502 12.4127 51.1714 12.9409C50.4925 13.4397 50.0498 14.3347 49.8433 15.6259H43.9553C44.3095 10.5199 47.8363 7.96699 54.5359 7.96699C61.1765 7.96699 64.4967 10.4319 64.4967 15.3618V25.1774C64.4967 28.0532 64.7624 30.1073 65.2936 31.3398ZM58.4317 20.2916C57.6939 20.7318 56.2182 21.1279 54.0047 21.4801C52.1453 21.7735 50.9352 22.1403 50.3745 22.5805C49.7252 23.138 49.4005 23.901 49.4005 24.8693C49.4005 25.8083 49.6957 26.5566 50.286 27.1142C50.9057 27.6424 51.7616 27.9065 52.8536 27.9065C54.5359 27.9065 55.8788 27.4663 56.8822 26.586C57.9152 25.6763 58.4317 24.4292 58.4317 22.8446V20.2916Z" fill="#F8F8F8"/>
<path d="M87.7041 22.5805C87.3204 25.5149 86.1546 27.8038 84.2067 29.447C82.2884 31.0903 79.8092 31.912 76.7693 31.912C73.2572 31.912 70.4387 30.8409 68.3137 28.6988C66.1887 26.5566 65.1262 23.7102 65.1262 20.1596C65.1262 16.4915 66.1887 13.5424 68.3137 11.3122C70.4682 9.08207 73.3162 7.96699 76.8579 7.96699C79.8978 7.96699 82.3769 8.74461 84.2953 10.2999C86.2137 11.8258 87.3057 13.9092 87.5713 16.5502H81.4177C80.9455 13.9386 79.4403 12.6327 76.9021 12.6327C75.1903 12.6327 73.8475 13.293 72.8735 14.6135C71.9291 15.9046 71.4569 17.7093 71.4569 20.0275C71.4569 22.287 71.9143 24.0477 72.8293 25.3095C73.7737 26.542 75.0871 27.1582 76.7693 27.1582C79.5141 27.1582 81.1373 25.6323 81.6391 22.5805H87.7041Z" fill="#F8F8F8"/>
<path d="M109.982 8.62723L101.393 17.0344L111 31.3398H103.385L97.0991 21.26L94.5314 23.6369V31.3398H88.3778V0H94.5314V16.7703L102.589 8.62723H109.982Z" fill="#F8F8F8"/>
</svg>
