<svg width="20" height="22" viewBox="0 0 20 22" fill="none" xmlns="http://www.w3.org/2000/svg">
<path fill-rule="evenodd" clip-rule="evenodd" d="M18.9419 8.8904L19.0959 9.0051C19.3977 9.2277 19.4873 9.3468 19.5 9.5176C19.5 9.5739 19.4937 9.63 19.4852 9.6435L19.4198 9.7649L19.3755 9.8439C19.366 9.861 19.3576 9.8733 19.3534 9.8773L19.2879 9.956L19.2497 10.0013C19.2142 10.0436 19.1939 10.0678 19.0717 10.2033C18.9957 10.291 18.906 10.3876 18.8754 10.4169L18.8522 10.4413C18.8293 10.4652 18.8073 10.4882 18.7995 10.5C18.7841 10.5131 18.7457 10.554 18.7106 10.5913L18.7077 10.5944L18.5747 10.7347L18.3574 10.9676L18.3141 11.0142L18.1875 11.1496L18.0915 11.2553L18.0219 11.3385C17.9416 11.437 17.861 11.5338 17.78 11.6289C17.9238 12.2291 18 12.8557 18 13.5C18 17.9183 14.4183 21.5 10 21.5C5.58172 21.5 2 17.9183 2 13.5C2 12.8532 2.07676 12.2243 2.22166 11.622C2.12238 11.5044 2.02395 11.3844 1.9264 11.262L1.72383 11.0418C1.71012 11.0283 1.66581 10.9811 1.62783 10.9362L1.58562 10.8902L1.47379 10.772L1.31026 10.5989L1.22375 10.5073L1.11403 10.3943L0.98215 10.255L0.89036 10.1561C0.84605 10.1133 0.62555 9.8369 0.59812 9.7873L0.56963 9.7417L0.55381 9.7154C0.52005 9.657 0.5 9.5784 0.5 9.5064C0.5 9.3401 0.66564 9.1556 1.056 8.8837L1.13407 8.8274L1.20792 8.7758C1.21847 8.7713 1.27967 8.7308 1.3398 8.6882L1.46219 8.5982C1.4643 8.5937 1.50966 8.5644 1.55819 8.5353C1.60778 8.506 1.6637 8.4678 1.68163 8.4543C1.69645 8.4405 1.73646 8.4146 1.77171 8.3917L1.78608 8.3824C1.89791 8.315 2.06988 8.1958 2.18171 8.1104L2.38217 7.9597L2.4307 7.9229C2.47712 7.8854 2.52671 7.8411 2.55414 7.8114L2.69973 7.6607C2.76831 7.5934 2.79258 7.5618 2.87065 7.42922C2.88647 7.40682 2.91601 7.3573 2.93606 7.32357C2.97826 7.2607 2.99831 7.17746 3.04789 6.89426C3.06266 6.80939 3.06266 6.53456 3.05317 6.31802C3.04789 6.18445 3.0384 6.07314 3.02785 6.04224C3.01835 6.01755 3.00042 5.9366 2.99198 5.86469C2.98248 5.79277 2.96982 5.71857 2.96033 5.70049C2.95611 5.69064 2.95083 5.66932 2.94555 5.64396L2.93395 5.5769C2.92656 5.52968 2.91601 5.47801 2.90863 5.46451C2.90019 5.45102 2.88647 5.38356 2.87803 5.31394C2.86854 5.24648 2.8506 5.16553 2.84216 5.13625C2.83584 5.11646 2.82743 5.06993 2.81795 5.01758L2.80207 4.94076C2.79047 4.8621 2.76409 4.71598 2.74615 4.61695C2.7376 4.57087 2.72809 4.51252 2.71876 4.45529C2.70853 4.39254 2.69852 4.33116 2.69024 4.28882C2.67913 4.20914 2.66029 4.10892 2.65129 4.06109L2.65015 4.05501C2.62377 3.92683 2.60795 3.35585 2.63221 3.28165C2.65015 3.21648 2.74615 3.11529 2.83267 3.06146C2.89597 3.02098 3.2167 3.01424 3.41399 3.04338C3.67985 3.08615 3.99636 3.14686 4.26856 3.20973L4.48801 3.25696L4.52057 3.26572C4.57315 3.27986 4.6162 3.29143 4.6241 3.29514C4.63254 3.29973 4.69057 3.31092 4.75598 3.32212C4.81823 3.33346 4.87626 3.34695 4.8847 3.3514C4.89419 3.35815 4.95011 3.36934 5.00813 3.38068C5.06616 3.38958 5.12208 3.40307 5.13052 3.41211C5.14001 3.41886 5.1801 3.43006 5.21809 3.43451C5.25818 3.44126 5.30038 3.4503 5.3162 3.45934C5.33203 3.46824 5.39427 3.48403 5.45441 3.49752C5.50134 3.50568 5.57464 3.5211 5.64036 3.53491L5.70867 3.54919C5.88697 3.58953 6.00725 3.61328 6.11802 3.62907C6.21087 3.64229 6.29632 3.64998 6.40288 3.65713C6.65609 3.67062 6.71623 3.66833 6.97893 3.6234C7.05489 3.60991 7.1203 3.58292 7.19837 3.53799C7.43892 3.39862 7.49062 3.3626 7.49906 3.35585C7.50644 3.3514 7.5824 3.27719 7.66892 3.18734C7.75648 3.09964 7.87676 2.96917 7.93267 2.89726L8.0529 2.74898L8.0709 2.72618L8.0888 2.69717C8.1004 2.67694 8.1131 2.6567 8.1205 2.65225C8.1342 2.6455 8.2365 2.49493 8.341 2.33303L8.3906 2.25207C8.4001 2.23413 8.4106 2.21834 8.419 2.20971C8.4233 2.20526 8.4275 2.20269 8.4306 2.20269C8.4349 2.20269 8.4423 2.19811 8.4423 2.18691L8.4507 2.16748L8.4728 2.13078C8.5203 2.07007 8.6269 1.91262 8.6364 1.89697C8.6469 1.87443 8.9423 1.46752 9.051 1.32598L9.1628 1.17757C9.167 1.17209 9.1735 1.16408 9.1813 1.15438C9.199 1.13236 9.2239 1.1016 9.2451 1.07193L9.3369 0.959538L9.3485 0.946859C9.3621 0.930659 9.3782 0.911528 9.3907 0.901118L9.473 0.808968C9.587 0.676348 9.7864 0.518889 9.8644 0.503239C9.8866 0.500949 9.9625 0.498659 10.0364 0.500949C10.1609 0.503239 10.1767 0.507698 10.2548 0.557078C10.3265 0.604298 10.4732 0.734768 10.5607 0.833658L10.7285 1.03375L10.8488 1.18432C10.9891 1.36187 11.0366 1.42488 11.0366 1.44053C11.0366 1.44512 11.0408 1.45402 11.0471 1.45632C11.0534 1.45821 11.1167 1.54172 11.1959 1.65141C11.2993 1.79402 11.4322 1.98102 11.5071 2.09031L11.6506 2.29714C11.6886 2.35097 11.7192 2.40494 11.7192 2.41168C11.7192 2.41627 11.7234 2.42747 11.7308 2.42976C11.7392 2.43422 11.7645 2.46795 11.7909 2.50842L11.7972 2.51895L11.803 2.52806C11.8246 2.56225 11.842 2.58967 11.8468 2.59153L11.869 2.62108L11.9154 2.68368C11.9328 2.70406 11.9537 2.731 11.9746 2.75802L12.003 2.79445L12.0367 2.83884L12.1211 2.95123C12.1433 2.98496 12.4007 3.24792 12.4914 3.33346C12.5273 3.36719 12.751 3.50656 12.7668 3.50656C12.7668 3.50656 12.8111 3.5268 12.8512 3.55364C12.9272 3.60087 12.9789 3.61436 13.2247 3.65483C13.345 3.67507 13.7955 3.65942 13.9031 3.63244C13.9432 3.61895 14.0191 3.60545 14.0729 3.60087C14.1056 3.59682 14.1362 3.59115 14.1573 3.5863L14.1848 3.57847L14.2122 3.57051C14.2396 3.5639 14.2829 3.55513 14.3272 3.54919C14.3968 3.54029 14.457 3.5268 14.4633 3.51776C14.4675 3.5133 14.5255 3.49981 14.5931 3.48848C14.6448 3.47971 14.6901 3.47094 14.707 3.46433L14.7154 3.45934C14.7154 3.45259 14.7513 3.44126 14.7914 3.4368C14.8368 3.43006 14.8769 3.41886 14.8853 3.41427C14.8906 3.41036 14.9096 3.40429 14.9349 3.39822L14.9993 3.38513C15.0552 3.37393 15.1132 3.36044 15.1311 3.35369C15.147 3.34465 15.2092 3.32887 15.2672 3.31767C15.377 3.29514 15.5774 3.25021 15.7494 3.20973C15.8011 3.19624 15.9034 3.176 15.9773 3.16481C16.0469 3.15131 16.1197 3.13553 16.1376 3.12662C16.1735 3.11529 16.355 3.08385 16.6198 3.04338C16.835 3.01424 17.103 3.02543 17.1758 3.06591C17.2612 3.11529 17.333 3.1895 17.3636 3.266C17.3878 3.31767 17.3952 3.37609 17.3952 3.55823C17.3952 3.68182 17.3857 3.84143 17.3752 3.91118L17.3372 4.14945L17.3167 4.29477C17.2808 4.54905 17.2727 4.60675 17.2591 4.65297C17.2496 4.68441 17.2317 4.76981 17.2232 4.84631C17.2138 4.92268 17.2011 4.99243 17.1937 5.00592L17.1557 5.19252C17.1464 5.25041 17.1322 5.31987 17.1202 5.378C17.1132 5.41238 17.1069 5.4428 17.103 5.46451C17.0428 5.72882 17.0091 5.90449 16.989 6.08231C16.9764 6.19025 16.9679 6.29899 16.9616 6.42892C16.9532 6.62226 16.9511 6.79078 16.9532 6.80211C16.9574 6.8156 16.969 6.88967 16.9774 6.96172L16.9777 6.9633C16.9892 7.03694 17.0017 7.11692 17.0091 7.14157C17.0175 7.16626 17.0291 7.21119 17.0355 7.24046C17.0418 7.27419 17.0534 7.30563 17.065 7.31683C17.0755 7.32803 17.1051 7.37754 17.1315 7.42476L17.136 7.43166C17.1637 7.47375 17.1876 7.5102 17.1916 7.5102C17.1958 7.5102 17.2053 7.5281 17.2116 7.5462C17.219 7.5664 17.2496 7.6114 17.2855 7.6428C17.3235 7.6742 17.353 7.708 17.353 7.7125C17.353 7.7193 17.411 7.7777 17.487 7.8452C17.6737 8.0204 17.7951 8.1104 18.1675 8.3599L18.4977 8.5802L18.5294 8.6017L18.6212 8.6635L18.6897 8.7151C18.7035 8.7286 18.7214 8.7421 18.7277 8.7421C18.7372 8.7421 18.8353 8.8096 18.9419 8.8904ZM4.00079 13.4015C4.00027 13.4343 4 13.4671 4 13.5C4 16.8137 6.68629 19.5 10 19.5C13.3137 19.5 16 16.8137 16 13.5C16 13.468 15.9997 13.436 15.9992 13.4041C15.948 10.1346 13.2817 7.5 10 7.5C6.71918 7.5 4.05339 10.1332 4.00079 13.4015Z" fill="#A7A7A7"/>
</svg>
