<svg width="18" height="20" viewBox="0 0 18 20" fill="none" xmlns="http://www.w3.org/2000/svg">
<path fill-rule="evenodd" clip-rule="evenodd" d="M11 5H7H5H3.33112C2.89861 4.99997 2.47109 5.09345 2.07809 5.27405C1.68505 5.45467 1.33572 5.71814 1.05404 6.0464C0.772362 6.37467 0.565004 6.75997 0.446179 7.17588C0.327354 7.59179 0.299898 8.02863 0.365646 8.45616L1.62065 16.6082C1.76591 17.5525 2.24437 18.4136 2.96946 19.0357C3.6946 19.6579 4.61854 20 5.574 20H12.426C13.3816 20.0002 14.3057 19.6583 15.031 19.0362C15.7564 18.414 16.2351 17.5525 16.3804 16.608L17.6354 8.456C17.7011 8.02847 17.6736 7.59179 17.5548 7.17588C17.436 6.75997 17.2286 6.37467 16.947 6.0464C16.6653 5.71814 16.316 5.45467 15.9229 5.27405C15.5299 5.09345 15.1024 4.99997 14.6699 5H13H11ZM2.9132 7.09135C3.04422 7.03115 3.18682 6.99998 3.331 7H5H7H11H13H14.6701C14.8143 6.99998 14.9568 7.03115 15.0878 7.09135C15.2188 7.15156 15.3353 7.23938 15.4291 7.3488C15.523 7.45822 15.5922 7.58665 15.6318 7.72529C15.6714 7.86388 15.6805 8.00954 15.6586 8.152L14.4036 16.304C14.331 16.7763 14.0917 17.207 13.7289 17.5181C13.3662 17.8292 12.9038 18.0001 12.426 18H5.574C5.09628 18 4.63436 17.8289 4.2718 17.5179C3.90924 17.2068 3.66997 16.776 3.59736 16.3038L2.34236 8.15189C2.32047 8.00941 2.32964 7.86389 2.36924 7.72529C2.40884 7.58666 2.47796 7.45822 2.57186 7.3488C2.66575 7.23938 2.78219 7.15156 2.9132 7.09135Z" fill="#A7A7A7"/>
<path d="M7.58579 2.58579C7.96086 2.21071 8.46957 2 9 2C9.53043 2 10.0391 2.21071 10.4142 2.58579C10.7893 2.96086 11 3.46957 11 4V5H13V4C13 2.93913 12.5786 1.92172 11.8284 1.17157C11.0783 0.421427 10.0609 0 9 0C7.93914 0 6.92172 0.421427 6.17157 1.17157C5.42143 1.92172 5 2.93913 5 4V5H7V4C7 3.46957 7.21072 2.96086 7.58579 2.58579Z" fill="#A7A7A7"/>
<path d="M7 9V7H5V9C5 9.55229 5.44772 10 6 10C6.55229 10 7 9.55229 7 9Z" fill="#A7A7A7"/>
<path d="M13 9V7H11V9C11 9.55229 11.4477 10 12 10C12.5523 10 13 9.55229 13 9Z" fill="#A7A7A7"/>
<path d="M9 2C8.46957 2 7.96086 2.21071 7.58579 2.58579C7.21072 2.96086 7 3.46957 7 4V5H11V4C11 3.46957 10.7893 2.96086 10.4142 2.58579C10.0391 2.21071 9.53043 2 9 2Z" fill="#A7A7A7"/>
</svg>
